<svg width="182" height="51" viewBox="0 0 182 51" fill="none" xmlns="http://www.w3.org/2000/svg">
<path d="M77.323 33.78C77.917 33.186 78.661 32.889 79.555 32.889C80.449 32.889 81.193 33.186 81.787 33.78C82.381 34.374 82.678 35.115 82.678 36.003C82.678 36.891 82.381 37.632 81.787 38.226C81.193 38.82 80.449 39.117 79.555 39.117C78.661 39.117 77.917 38.82 77.323 38.226C76.729 37.632 76.432 36.891 76.432 36.003C76.432 35.115 76.729 34.374 77.323 33.78ZM77.971 37.641C78.385 38.061 78.913 38.271 79.555 38.271C80.197 38.271 80.725 38.061 81.139 37.641C81.553 37.215 81.76 36.669 81.76 36.003C81.76 35.337 81.553 34.794 81.139 34.374C80.725 33.948 80.197 33.735 79.555 33.735C78.913 33.735 78.385 33.948 77.971 34.374C77.557 34.794 77.35 35.337 77.35 36.003C77.35 36.669 77.557 37.215 77.971 37.641ZM83.4884 39V35.211H84.3704V36.615H85.9364V35.211H86.8184V39H85.9364V37.425H84.3704V39H83.4884ZM90.8696 35.211V39H89.9876V36.021H88.8716V37.524C88.8716 37.992 88.7516 38.355 88.5116 38.613C88.2056 38.955 87.7916 39.084 87.2696 39V38.19C87.5276 38.25 87.7346 38.193 87.8906 38.019C87.9806 37.911 88.0256 37.746 88.0256 37.524V35.211H90.8696ZM94.5752 35.652V35.211H95.4572V39H94.5752V38.604C94.2812 38.946 93.9032 39.117 93.4412 39.117C92.8832 39.117 92.4362 38.919 92.1002 38.523C91.7702 38.127 91.6052 37.653 91.6052 37.101C91.6052 36.501 91.7822 36.021 92.1362 35.661C92.4962 35.295 92.9342 35.112 93.4502 35.112C93.9242 35.112 94.2992 35.292 94.5752 35.652ZM93.5582 35.904C93.2462 35.904 92.9912 36.021 92.7932 36.255C92.6012 36.489 92.5052 36.777 92.5052 37.119C92.5052 37.455 92.6012 37.74 92.7932 37.974C92.9912 38.208 93.2462 38.325 93.5582 38.325C93.8582 38.325 94.1102 38.22 94.3142 38.01C94.5242 37.8 94.6292 37.506 94.6292 37.128C94.6292 36.738 94.5242 36.438 94.3142 36.228C94.1102 36.012 93.8582 35.904 93.5582 35.904ZM96.3956 35.211H97.2776V37.362L99.8696 34.869V39H98.9876V36.795L96.3956 39.288V35.211ZM96.6836 33.573L97.4036 33.366C97.5176 33.756 97.7636 33.951 98.1416 33.951C98.5136 33.951 98.7596 33.756 98.8796 33.366L99.5996 33.573C99.5036 33.915 99.3086 34.179 99.0146 34.365C98.7266 34.545 98.4356 34.635 98.1416 34.635C97.8476 34.635 97.5536 34.545 97.2596 34.365C96.9716 34.179 96.7796 33.915 96.6836 33.573ZM100.804 39V35.211H101.686V36.615H103.252V35.211H104.134V39H103.252V37.425H101.686V39H100.804ZM104.963 37.542V36.624H107.123V37.542H104.963ZM107.949 35.211H108.831V37.362L111.423 34.869V39H110.541V36.795L107.949 39.288V35.211ZM112.357 39V35.211H113.239V36.615H114.805V35.211H115.687V39H114.805V37.425H113.239V39H112.357ZM119.559 35.382V36.372C119.241 36.06 118.884 35.904 118.488 35.904C118.152 35.904 117.873 36.015 117.651 36.237C117.435 36.453 117.327 36.744 117.327 37.11C117.327 37.488 117.441 37.791 117.669 38.019C117.885 38.223 118.152 38.325 118.47 38.325C118.908 38.325 119.271 38.163 119.559 37.839V38.82C119.241 39.018 118.857 39.117 118.407 39.117C117.801 39.117 117.321 38.931 116.967 38.559C116.607 38.187 116.427 37.713 116.427 37.137C116.427 36.543 116.619 36.054 117.003 35.67C117.375 35.298 117.882 35.112 118.524 35.112C118.89 35.112 119.235 35.202 119.559 35.382ZM122.922 36.021H121.815V39H120.933V36.021H119.826V35.211H122.922V36.021ZM124.257 38.559V41.061H123.375V35.211H124.257V35.625C124.545 35.283 124.92 35.112 125.382 35.112C125.898 35.112 126.333 35.295 126.687 35.661C127.047 36.021 127.227 36.495 127.227 37.083C127.227 37.689 127.041 38.181 126.669 38.559C126.297 38.931 125.871 39.117 125.391 39.117C124.941 39.117 124.563 38.931 124.257 38.559ZM125.274 35.904C124.974 35.904 124.719 36.012 124.509 36.228C124.305 36.438 124.203 36.738 124.203 37.128C124.203 37.506 124.305 37.8 124.509 38.01C124.719 38.22 124.974 38.325 125.274 38.325C125.586 38.325 125.838 38.208 126.03 37.974C126.228 37.74 126.327 37.455 126.327 37.119C126.327 36.777 126.228 36.489 126.03 36.255C125.838 36.021 125.586 35.904 125.274 35.904ZM127.688 41.061L129.083 38.406L127.463 35.211H128.525L129.605 37.425L130.703 35.211H131.693L128.678 41.061H127.688ZM131.697 39L132.615 34.869L134.181 37.758L135.747 34.869L136.665 39H135.765L135.387 37.101L134.181 39.288L132.975 37.101L132.597 39H131.697ZM139.825 37.722L140.563 38.136C140.395 38.436 140.182 38.667 139.924 38.829C139.63 39.021 139.258 39.117 138.808 39.117C138.28 39.117 137.854 38.955 137.53 38.631C137.158 38.259 136.972 37.776 136.972 37.182C136.972 36.558 137.173 36.039 137.575 35.625C137.917 35.283 138.34 35.112 138.844 35.112C139.336 35.112 139.741 35.277 140.059 35.607C140.413 35.973 140.59 36.507 140.59 37.209V37.317H137.872C137.896 37.635 138.004 37.89 138.196 38.082C138.358 38.244 138.583 38.325 138.871 38.325C139.105 38.325 139.306 38.262 139.474 38.136C139.612 38.028 139.729 37.89 139.825 37.722ZM137.935 36.597H139.69C139.654 36.387 139.564 36.216 139.42 36.084C139.264 35.94 139.066 35.868 138.826 35.868C138.574 35.868 138.367 35.949 138.205 36.111C138.073 36.231 137.983 36.393 137.935 36.597ZM141.332 39V35.211H142.214V36.615H143.78V35.211H144.662V39H143.78V37.425H142.214V39H141.332ZM148.209 36.021H147.102V39H146.22V36.021H145.113V35.211H148.209V36.021ZM150.907 35.211H153.751V38.19H154.327V40.08H153.517V39H150.871V40.08H150.061V38.19C150.367 38.172 150.598 38.007 150.754 37.695C150.856 37.473 150.907 37.14 150.907 36.696V35.211ZM152.869 38.19V36.021H151.753V37.029C151.753 37.575 151.606 37.962 151.312 38.19H152.869ZM158.087 35.211V39H157.205V36.021H156.089V37.524C156.089 37.992 155.969 38.355 155.729 38.613C155.423 38.955 155.009 39.084 154.487 39V38.19C154.745 38.25 154.952 38.193 155.108 38.019C155.198 37.911 155.243 37.746 155.243 37.524V35.211H158.087ZM158.535 39L159.723 37.497C159.489 37.461 159.288 37.365 159.12 37.209C158.91 37.005 158.805 36.744 158.805 36.426C158.805 36.066 158.922 35.775 159.156 35.553C159.396 35.325 159.762 35.211 160.254 35.211H161.667V39H160.785V37.605H160.605L159.57 39H158.535ZM160.785 36.885V35.967H160.272C160.062 35.967 159.909 35.994 159.813 36.048C159.669 36.138 159.597 36.264 159.597 36.426C159.597 36.588 159.657 36.711 159.777 36.795C159.867 36.855 160.029 36.885 160.263 36.885H160.785ZM79.168 45.021H78.061V48H77.179V45.021H76.072V44.211H79.168V45.021ZM81.9095 46.722L82.6475 47.136C82.4795 47.436 82.2665 47.667 82.0085 47.829C81.7145 48.021 81.3425 48.117 80.8925 48.117C80.3645 48.117 79.9385 47.955 79.6145 47.631C79.2425 47.259 79.0565 46.776 79.0565 46.182C79.0565 45.558 79.2575 45.039 79.6595 44.625C80.0015 44.283 80.4245 44.112 80.9285 44.112C81.4205 44.112 81.8255 44.277 82.1435 44.607C82.4975 44.973 82.6745 45.507 82.6745 46.209V46.317H79.9565C79.9805 46.635 80.0885 46.89 80.2805 47.082C80.4425 47.244 80.6675 47.325 80.9555 47.325C81.1895 47.325 81.3905 47.262 81.5585 47.136C81.6965 47.028 81.8135 46.89 81.9095 46.722ZM80.0195 45.597H81.7745C81.7385 45.387 81.6485 45.216 81.5045 45.084C81.3485 44.94 81.1505 44.868 80.9105 44.868C80.6585 44.868 80.4515 44.949 80.2895 45.111C80.1575 45.231 80.0675 45.393 80.0195 45.597ZM86.0803 44.382V45.372C85.7623 45.06 85.4053 44.904 85.0093 44.904C84.6733 44.904 84.3943 45.015 84.1723 45.237C83.9563 45.453 83.8483 45.744 83.8483 46.11C83.8483 46.488 83.9623 46.791 84.1903 47.019C84.4063 47.223 84.6733 47.325 84.9913 47.325C85.4293 47.325 85.7923 47.163 86.0803 46.839V47.82C85.7623 48.018 85.3783 48.117 84.9283 48.117C84.3223 48.117 83.8423 47.931 83.4883 47.559C83.1283 47.187 82.9483 46.713 82.9483 46.137C82.9483 45.543 83.1403 45.054 83.5243 44.67C83.8963 44.298 84.4033 44.112 85.0453 44.112C85.4113 44.112 85.7563 44.202 86.0803 44.382ZM89.1735 45.021H88.0665V48H87.1845V45.021H86.0775V44.211H89.1735V45.021ZM89.3566 44.211H90.2386V46.362L92.8306 43.869V48H91.9486V45.795L89.3566 48.288V44.211ZM94.3765 47.559V50.061H93.4945V44.211H94.3765V44.625C94.6645 44.283 95.0395 44.112 95.5015 44.112C96.0175 44.112 96.4525 44.295 96.8065 44.661C97.1665 45.021 97.3465 45.495 97.3465 46.083C97.3465 46.689 97.1605 47.181 96.7885 47.559C96.4165 47.931 95.9905 48.117 95.5105 48.117C95.0605 48.117 94.6825 47.931 94.3765 47.559ZM95.3935 44.904C95.0935 44.904 94.8385 45.012 94.6285 45.228C94.4245 45.438 94.3225 45.738 94.3225 46.128C94.3225 46.506 94.4245 46.8 94.6285 47.01C94.8385 47.22 95.0935 47.325 95.3935 47.325C95.7055 47.325 95.9575 47.208 96.1495 46.974C96.3475 46.74 96.4465 46.455 96.4465 46.119C96.4465 45.777 96.3475 45.489 96.1495 45.255C95.9575 45.021 95.7055 44.904 95.3935 44.904ZM98.195 44.679C98.585 44.301 99.068 44.112 99.644 44.112C100.22 44.112 100.7 44.301 101.084 44.679C101.474 45.051 101.669 45.528 101.669 46.11C101.669 46.686 101.474 47.166 101.084 47.55C100.7 47.928 100.22 48.117 99.644 48.117C99.068 48.117 98.585 47.928 98.195 47.55C97.811 47.166 97.619 46.686 97.619 46.11C97.619 45.528 97.811 45.051 98.195 44.679ZM98.825 47.001C99.029 47.217 99.302 47.325 99.644 47.325C99.986 47.325 100.259 47.217 100.463 47.001C100.667 46.779 100.769 46.485 100.769 46.119C100.769 45.717 100.658 45.414 100.436 45.21C100.22 45.006 99.956 44.904 99.644 44.904C99.332 44.904 99.065 45.006 98.843 45.21C98.627 45.414 98.519 45.717 98.519 46.119C98.519 46.485 98.621 46.779 98.825 47.001ZM102.139 44.211H103.624C104.002 44.211 104.29 44.286 104.488 44.436C104.722 44.622 104.839 44.865 104.839 45.165C104.839 45.507 104.689 45.753 104.389 45.903C104.581 45.939 104.752 46.023 104.902 46.155C105.1 46.335 105.199 46.578 105.199 46.884C105.199 47.25 105.061 47.538 104.785 47.748C104.557 47.916 104.266 48 103.912 48H102.139V44.211ZM103.021 45.687H103.471C103.627 45.687 103.744 45.66 103.822 45.606C103.936 45.534 103.993 45.432 103.993 45.3C103.993 45.174 103.942 45.075 103.84 45.003C103.768 44.955 103.639 44.931 103.453 44.931H103.021V45.687ZM103.021 47.28H103.678C103.876 47.28 104.029 47.244 104.137 47.172C104.257 47.094 104.317 46.983 104.317 46.839C104.317 46.683 104.26 46.572 104.146 46.506C104.044 46.44 103.897 46.407 103.705 46.407H103.021V47.28ZM108.443 44.652V44.211H109.325V48H108.443V47.604C108.149 47.946 107.771 48.117 107.309 48.117C106.751 48.117 106.304 47.919 105.968 47.523C105.638 47.127 105.473 46.653 105.473 46.101C105.473 45.501 105.65 45.021 106.004 44.661C106.364 44.295 106.802 44.112 107.318 44.112C107.792 44.112 108.167 44.292 108.443 44.652ZM107.426 44.904C107.114 44.904 106.859 45.021 106.661 45.255C106.469 45.489 106.373 45.777 106.373 46.119C106.373 46.455 106.469 46.74 106.661 46.974C106.859 47.208 107.114 47.325 107.426 47.325C107.726 47.325 107.978 47.22 108.182 47.01C108.392 46.8 108.497 46.506 108.497 46.128C108.497 45.738 108.392 45.438 108.182 45.228C107.978 45.012 107.726 44.904 107.426 44.904ZM109.993 48V44.211H110.875V45.615H112.441V44.211H113.323V48H112.441V46.425H110.875V48H109.993ZM113.991 44.211H114.873V46.362L117.465 43.869V48H116.583V45.795L113.991 48.288V44.211ZM117.643 48L118.831 46.497C118.597 46.461 118.396 46.365 118.228 46.209C118.018 46.005 117.913 45.744 117.913 45.426C117.913 45.066 118.03 44.775 118.264 44.553C118.504 44.325 118.87 44.211 119.362 44.211H120.775V48H119.893V46.605H119.713L118.678 48H117.643ZM119.893 45.885V44.967H119.38C119.17 44.967 119.017 44.994 118.921 45.048C118.777 45.138 118.705 45.264 118.705 45.426C118.705 45.588 118.765 45.711 118.885 45.795C118.975 45.855 119.137 45.885 119.371 45.885H119.893ZM123.091 48V44.211H123.973V45.615H125.539V44.211H126.421V48H125.539V46.425H123.973V48H123.091ZM129.86 44.652V44.211H130.742V48H129.86V47.604C129.566 47.946 129.188 48.117 128.726 48.117C128.168 48.117 127.721 47.919 127.385 47.523C127.055 47.127 126.89 46.653 126.89 46.101C126.89 45.501 127.067 45.021 127.421 44.661C127.781 44.295 128.219 44.112 128.735 44.112C129.209 44.112 129.584 44.292 129.86 44.652ZM128.843 44.904C128.531 44.904 128.276 45.021 128.078 45.255C127.886 45.489 127.79 45.777 127.79 46.119C127.79 46.455 127.886 46.74 128.078 46.974C128.276 47.208 128.531 47.325 128.843 47.325C129.143 47.325 129.395 47.22 129.599 47.01C129.809 46.8 129.914 46.506 129.914 46.128C129.914 45.738 129.809 45.438 129.599 45.228C129.395 45.012 129.143 44.904 128.843 44.904ZM133.061 44.211H136.355V48H135.473V45.021H133.943V48H133.061V44.211ZM137.401 44.679C137.791 44.301 138.274 44.112 138.85 44.112C139.426 44.112 139.906 44.301 140.29 44.679C140.68 45.051 140.875 45.528 140.875 46.11C140.875 46.686 140.68 47.166 140.29 47.55C139.906 47.928 139.426 48.117 138.85 48.117C138.274 48.117 137.791 47.928 137.401 47.55C137.017 47.166 136.825 46.686 136.825 46.11C136.825 45.528 137.017 45.051 137.401 44.679ZM138.031 47.001C138.235 47.217 138.508 47.325 138.85 47.325C139.192 47.325 139.465 47.217 139.669 47.001C139.873 46.779 139.975 46.485 139.975 46.119C139.975 45.717 139.864 45.414 139.642 45.21C139.426 45.006 139.162 44.904 138.85 44.904C138.538 44.904 138.271 45.006 138.049 45.21C137.833 45.414 137.725 45.717 137.725 46.119C137.725 46.485 137.827 46.779 138.031 47.001ZM144.46 44.211V48H143.578V45.021H142.462V46.524C142.462 46.992 142.342 47.355 142.102 47.613C141.796 47.955 141.382 48.084 140.86 48V47.19C141.118 47.25 141.325 47.193 141.481 47.019C141.571 46.911 141.616 46.746 141.616 46.524V44.211H144.46ZM145.123 48V44.211H146.005V45.552H146.509C146.671 45.552 146.803 45.558 146.905 45.57C147.007 45.576 147.13 45.609 147.274 45.669C147.418 45.729 147.544 45.819 147.652 45.939C147.85 46.161 147.949 46.437 147.949 46.767C147.949 47.145 147.835 47.448 147.607 47.676C147.505 47.778 147.382 47.856 147.238 47.91C147.1 47.958 146.983 47.985 146.887 47.991C146.797 47.997 146.668 48 146.5 48H145.123ZM146.005 47.244H146.41C146.626 47.244 146.779 47.217 146.869 47.163C147.001 47.067 147.067 46.938 147.067 46.776C147.067 46.608 147.004 46.482 146.878 46.398C146.782 46.338 146.629 46.308 146.419 46.308H146.005V47.244ZM148.693 45.192L148.126 44.697C148.27 44.523 148.462 44.382 148.702 44.274C148.954 44.166 149.251 44.112 149.593 44.112C149.989 44.112 150.31 44.199 150.556 44.373C150.82 44.565 150.952 44.823 150.952 45.147C150.952 45.357 150.898 45.531 150.79 45.669C150.7 45.789 150.58 45.879 150.43 45.939C150.658 45.987 150.841 46.08 150.979 46.218C151.141 46.38 151.222 46.59 151.222 46.848C151.222 47.19 151.114 47.469 150.898 47.685C150.61 47.973 150.166 48.117 149.566 48.117C149.164 48.117 148.834 48.042 148.576 47.892C148.306 47.736 148.108 47.511 147.982 47.217L148.684 46.857C148.768 47.037 148.879 47.169 149.017 47.253C149.167 47.349 149.356 47.397 149.584 47.397C149.86 47.397 150.061 47.334 150.187 47.208C150.277 47.106 150.322 46.995 150.322 46.875C150.322 46.749 150.283 46.647 150.205 46.569C150.103 46.461 149.893 46.407 149.575 46.407H149.179V45.687H149.512C149.704 45.687 149.848 45.654 149.944 45.588C150.052 45.504 150.106 45.393 150.106 45.255C150.106 45.111 150.052 45.003 149.944 44.931C149.854 44.865 149.713 44.832 149.521 44.832C149.341 44.832 149.176 44.868 149.026 44.94C148.9 45 148.789 45.084 148.693 45.192ZM152.072 44.679C152.462 44.301 152.945 44.112 153.521 44.112C154.097 44.112 154.577 44.301 154.961 44.679C155.351 45.051 155.546 45.528 155.546 46.11C155.546 46.686 155.351 47.166 154.961 47.55C154.577 47.928 154.097 48.117 153.521 48.117C152.945 48.117 152.462 47.928 152.072 47.55C151.688 47.166 151.496 46.686 151.496 46.11C151.496 45.528 151.688 45.051 152.072 44.679ZM152.702 47.001C152.906 47.217 153.179 47.325 153.521 47.325C153.863 47.325 154.136 47.217 154.34 47.001C154.544 46.779 154.646 46.485 154.646 46.119C154.646 45.717 154.535 45.414 154.313 45.21C154.097 45.006 153.833 44.904 153.521 44.904C153.209 44.904 152.942 45.006 152.72 45.21C152.504 45.414 152.396 45.717 152.396 46.119C152.396 46.485 152.498 46.779 152.702 47.001ZM156.016 44.211H157.501C157.879 44.211 158.167 44.286 158.365 44.436C158.599 44.622 158.716 44.865 158.716 45.165C158.716 45.507 158.566 45.753 158.266 45.903C158.458 45.939 158.629 46.023 158.779 46.155C158.977 46.335 159.076 46.578 159.076 46.884C159.076 47.25 158.938 47.538 158.662 47.748C158.434 47.916 158.143 48 157.789 48H156.016V44.211ZM156.898 45.687H157.348C157.504 45.687 157.621 45.66 157.699 45.606C157.813 45.534 157.87 45.432 157.87 45.3C157.87 45.174 157.819 45.075 157.717 45.003C157.645 44.955 157.516 44.931 157.33 44.931H156.898V45.687ZM156.898 47.28H157.555C157.753 47.28 157.906 47.244 158.014 47.172C158.134 47.094 158.194 46.983 158.194 46.839C158.194 46.683 158.137 46.572 158.023 46.506C157.921 46.44 157.774 46.407 157.582 46.407H156.898V47.28ZM162.32 44.652V44.211H163.202V48H162.32V47.604C162.026 47.946 161.648 48.117 161.186 48.117C160.628 48.117 160.181 47.919 159.845 47.523C159.515 47.127 159.35 46.653 159.35 46.101C159.35 45.501 159.527 45.021 159.881 44.661C160.241 44.295 160.679 44.112 161.195 44.112C161.669 44.112 162.044 44.292 162.32 44.652ZM161.303 44.904C160.991 44.904 160.736 45.021 160.538 45.255C160.346 45.489 160.25 45.777 160.25 46.119C160.25 46.455 160.346 46.74 160.538 46.974C160.736 47.208 160.991 47.325 161.303 47.325C161.603 47.325 161.855 47.22 162.059 47.01C162.269 46.8 162.374 46.506 162.374 46.128C162.374 45.738 162.269 45.438 162.059 45.228C161.855 45.012 161.603 44.904 161.303 44.904ZM166.48 45.021H165.373V48H164.491V45.021H163.384V44.211H166.48V45.021ZM169.222 46.722L169.96 47.136C169.792 47.436 169.579 47.667 169.321 47.829C169.027 48.021 168.655 48.117 168.205 48.117C167.677 48.117 167.251 47.955 166.927 47.631C166.555 47.259 166.369 46.776 166.369 46.182C166.369 45.558 166.57 45.039 166.972 44.625C167.314 44.283 167.737 44.112 168.241 44.112C168.733 44.112 169.138 44.277 169.456 44.607C169.81 44.973 169.987 45.507 169.987 46.209V46.317H167.269C167.293 46.635 167.401 46.89 167.593 47.082C167.755 47.244 167.98 47.325 168.268 47.325C168.502 47.325 168.703 47.262 168.871 47.136C169.009 47.028 169.126 46.89 169.222 46.722ZM167.332 45.597H169.087C169.051 45.387 168.961 45.216 168.817 45.084C168.661 44.94 168.463 44.868 168.223 44.868C167.971 44.868 167.764 44.949 167.602 45.111C167.47 45.231 167.38 45.393 167.332 45.597ZM173.573 44.211V48H172.691V45.021H171.575V46.524C171.575 46.992 171.455 47.355 171.215 47.613C170.909 47.955 170.495 48.084 169.973 48V47.19C170.231 47.25 170.438 47.193 170.594 47.019C170.684 46.911 170.729 46.746 170.729 46.524V44.211H173.573ZM173.75 48L174.938 46.497C174.704 46.461 174.503 46.365 174.335 46.209C174.125 46.005 174.02 45.744 174.02 45.426C174.02 45.066 174.137 44.775 174.371 44.553C174.611 44.325 174.977 44.211 175.469 44.211H176.882V48H176V46.605H175.82L174.785 48H173.75ZM176 45.885V44.967H175.487C175.277 44.967 175.124 44.994 175.028 45.048C174.884 45.138 174.812 45.264 174.812 45.426C174.812 45.588 174.872 45.711 174.992 45.795C175.082 45.855 175.244 45.885 175.478 45.885H176ZM177.044 48L178.718 45.948L177.368 44.211H178.412L179.249 45.318L180.095 44.211H181.175L179.78 45.948L181.4 48H180.338L179.249 46.587L178.124 48H177.044Z" fill="white"/>
<path fill-rule="evenodd" clip-rule="evenodd" d="M13.1322 9.81836C12.2813 11.721 11.7019 13.7402 11.4175 15.8181C10.9125 19.508 11.3543 23.2645 12.7021 26.7408C14.05 30.2171 16.2603 33.3013 19.1294 35.7088L20.1483 36.6076C18.7528 37.2542 17.2493 37.6758 15.6931 37.844C15.5872 37.8561 15.4895 37.9066 15.4188 37.9859C15.3481 38.0652 15.3094 38.1677 15.3101 38.2736V42.9202C15.3105 42.9886 15.2908 43.0557 15.2535 43.1132C15.2163 43.1707 15.163 43.2162 15.1001 43.2441C15.0373 43.2721 14.9677 43.2813 14.8997 43.2707C14.8317 43.26 14.7682 43.23 14.7171 43.1842L5.00351 34.5907C3.18964 33.0623 1.79225 31.1047 0.940217 28.8983C0.0881871 26.692 -0.191056 24.308 0.128243 21.9661C0.447542 19.6243 1.3551 17.4001 2.76722 15.4986C4.17935 13.597 6.05057 12.0794 8.20833 11.0857C9.76414 10.3692 11.4328 9.94174 13.1322 9.81836Z" fill="white"/>
<path fill-rule="evenodd" clip-rule="evenodd" d="M54.0984 9.85596C55.3502 12.6689 56.0003 15.7156 55.9992 18.8033C55.9965 24.2655 53.959 29.5347 50.277 33.6021C49.0806 34.9237 47.7379 36.0883 46.2822 37.0788L53.1824 43.1833C53.2335 43.2291 53.297 43.2592 53.365 43.2698C53.433 43.2804 53.5026 43.2712 53.5654 43.2433C53.6283 43.2153 53.6816 43.1698 53.7188 43.1123C53.7561 43.0548 53.7758 42.9878 53.7754 42.9194V38.2728C53.7747 38.1668 53.8134 38.0644 53.8841 37.9851C53.9548 37.9058 54.0525 37.8552 54.1584 37.8431C57.63 37.4679 60.8399 35.8318 63.1719 33.2488C65.5039 30.6659 66.7937 27.3181 66.7938 23.848C66.7926 21.4848 66.1927 19.1599 65.0492 17.0878C63.9058 15.0156 62.2557 13.2629 60.2511 11.9913C58.3931 10.8127 56.2861 10.0826 54.0984 9.85596Z" fill="white"/>
<path fill-rule="evenodd" clip-rule="evenodd" d="M50.6584 10.0431C52.2264 12.8894 53.0476 16.0822 53.0464 19.327C53.0441 24.0867 51.275 28.6784 48.078 32.2227C44.881 35.7671 40.4806 38.0152 35.7195 38.5365C35.5742 38.5531 35.4403 38.6225 35.3434 38.7312C35.2465 38.84 35.1934 38.9805 35.1944 39.1257V45.5125C35.1949 45.6066 35.1679 45.6988 35.1166 45.7778C35.0653 45.8569 34.992 45.9194 34.9055 45.9578C34.8191 45.9962 34.7233 46.0088 34.6299 45.994C34.5364 45.9792 34.4492 45.9378 34.379 45.8747L21.0332 34.0587C18.5421 31.9608 16.6229 29.2732 15.4526 26.2439C14.2824 23.2146 13.8987 19.9413 14.3372 16.7259C14.7756 13.5104 16.022 10.4565 17.9613 7.84594C19.9007 5.23536 22.4704 3.15219 25.4335 1.78864C28.3966 0.425098 31.6576 -0.174891 34.9156 0.0440376C38.1736 0.262966 41.3236 1.29376 44.075 3.0413C46.8263 4.78885 49.0905 7.19685 50.6584 10.0431ZM30.0585 14.2566C29.9529 14.4387 29.8973 14.6452 29.8974 14.8553V23.6882C29.8973 23.8984 29.9529 24.1049 30.0585 24.2869C30.1642 24.469 30.3162 24.6202 30.4994 24.7253C30.6825 24.8305 30.8903 24.8859 31.1018 24.8859C31.3133 24.8859 31.5211 24.8306 31.7043 24.7255L40.4666 19.6953C40.5416 19.6522 40.6039 19.5902 40.6472 19.5156C40.6905 19.441 40.7133 19.3564 40.7133 19.2702C40.7133 19.1841 40.6905 19.0995 40.6472 19.0249C40.6039 18.9503 40.5416 18.8883 40.4666 18.8452L31.7043 13.818C31.5211 13.7129 31.3133 13.6576 31.1018 13.6576C30.8903 13.6577 30.6825 13.713 30.4994 13.8182C30.3162 13.9233 30.1642 14.0745 30.0585 14.2566Z" fill="white"/>
<path d="M76.0708 5.33363V15.4239C76.0708 16.982 76.3189 18.5648 77.3112 19.8261C78.502 21.3842 80.5859 22.2003 82.7194 22.2003C84.8529 22.2003 86.9368 21.3842 88.1276 19.8261C89.12 18.5648 89.3681 16.982 89.3681 15.4239V5.33363H86.143V15.696C86.143 16.9573 85.7212 17.7239 85.3491 18.1444C84.8777 18.7132 84.0095 19.282 82.7194 19.282C81.4294 19.282 80.5611 18.7132 80.0897 18.1444C79.7176 17.7239 79.2959 16.9573 79.2959 15.696V5.33363H76.0708Z" fill="white"/>
<path d="M91.4638 21.8293H95.3339L99.1543 15.7949L102.776 21.8293H106.646L100.99 13.1239L106.076 5.33363H102.206L99.1543 10.453L96.2518 5.33363H92.3817L97.3185 13.1239L91.4638 21.8293Z" fill="white"/>
<path d="M119.573 17.4766C118.605 18.6143 117.241 19.282 115.703 19.282C112.924 19.282 110.096 17.3035 110.096 13.6433C110.096 10.6014 112.254 7.88094 115.579 7.88094C116.174 7.88094 118.06 8.00459 119.573 9.73578V5.97664C118.06 5.16051 116.67 4.96266 115.504 4.96266C113.148 4.96266 111.088 5.58094 109.426 7.139C108.012 8.44975 106.772 10.6014 106.772 13.5938C106.772 16.0175 107.516 18.0702 109.426 19.9003C110.816 21.211 112.577 22.2003 115.48 22.2003C117.266 22.2003 118.581 21.7551 119.573 21.2358V17.4766Z" fill="white"/>
<path d="M122.091 21.8293H125.118V16.6852C125.118 15.9433 125.143 15.0282 125.713 14.311C126.309 13.5691 127.152 13.4455 127.723 13.4455C128.343 13.4455 128.74 13.5691 129.137 13.8412L129.534 11.0218C129.187 10.8981 128.765 10.7745 128.244 10.7745C127.524 10.7745 126.929 10.9476 126.458 11.2444C126.234 11.368 125.589 11.8132 125.118 12.7282V11.1207H122.091V21.8293Z" fill="white"/>
<path d="M136.395 10.7745C134.361 10.7745 132.972 11.4422 132.054 12.2831C130.987 13.2476 130.243 14.7315 130.243 16.4874C130.243 18.2186 130.987 19.7024 132.054 20.667C132.972 21.5078 134.361 22.1756 136.395 22.1756C138.43 22.1756 139.819 21.5078 140.737 20.667C141.804 19.7024 142.548 18.2186 142.548 16.4874C142.548 14.7315 141.804 13.2476 140.737 12.2831C139.819 11.4422 138.43 10.7745 136.395 10.7745ZM136.395 19.5046C134.634 19.5046 133.369 18.1196 133.369 16.4874C133.369 14.8057 134.659 13.4455 136.395 13.4455C138.132 13.4455 139.422 14.8057 139.422 16.4874C139.422 18.1196 138.157 19.5046 136.395 19.5046Z" fill="white"/>
<path d="M152.741 15.5229L155.569 21.8293H157.058L162.516 11.1207H159.142L156.313 17.3035L153.436 11.1207H152.046L149.169 17.3035L146.341 11.1207H142.967L148.424 21.8293H149.913L152.741 15.5229Z" fill="white"/>
<path d="M171.998 12.5057C170.981 10.9229 169.368 10.7745 168.55 10.7745C165.374 10.7745 163.216 13.2971 163.216 16.4627C163.216 19.6035 165.399 22.1756 168.698 22.1756C169.467 22.1756 170.906 22.0024 171.998 20.4444V21.8293H175.025V3.80029H171.998V12.5057ZM169.319 13.4455C171.055 13.4455 172.296 14.7562 172.296 16.4627C172.296 18.1691 171.055 19.5046 169.319 19.5046C167.582 19.5046 166.342 18.1691 166.342 16.4627C166.342 14.7562 167.582 13.4455 169.319 13.4455Z" fill="white"/>
</svg>
