<svg width="60" height="45" viewBox="0 0 60 45" fill="none" xmlns="http://www.w3.org/2000/svg">
<path fill-rule="evenodd" clip-rule="evenodd" d="M16.7433 5.85693C16.2349 6.99307 15.8888 8.19888 15.7189 9.43981C15.4176 11.6418 15.6812 13.8836 16.4856 15.9581C17.2899 18.0327 18.609 19.8732 20.3211 21.3099L20.9274 21.8448C20.0951 22.2302 19.1984 22.4815 18.2704 22.5818C18.2072 22.589 18.1489 22.6192 18.1067 22.6665C18.0646 22.7139 18.0415 22.775 18.0419 22.8382V25.6112C18.0421 25.652 18.0303 25.692 18.0081 25.7263C17.9858 25.7606 17.954 25.7878 17.9166 25.8045C17.8791 25.8211 17.8375 25.8267 17.7969 25.8203C17.7563 25.8139 17.7185 25.796 17.688 25.7687L11.8912 20.6404C10.8087 19.7283 9.97483 18.56 9.46637 17.2433C8.9579 15.9266 8.79126 14.5039 8.9818 13.1064C9.17235 11.7089 9.71395 10.3815 10.5567 9.24678C11.3994 8.11201 12.5161 7.20636 13.8037 6.61334C14.7326 6.1856 15.7287 5.93045 16.7433 5.85693Z" fill="#20C997"/>
<path fill-rule="evenodd" clip-rule="evenodd" d="M41.1893 5.88135C41.9363 7.56005 42.3243 9.37826 42.3237 11.2209C42.322 14.4806 41.1062 17.6251 38.9088 20.0524C38.1949 20.8411 37.3936 21.536 36.5249 22.1271L40.6427 25.77C40.6732 25.7974 40.711 25.8153 40.7516 25.8217C40.7922 25.828 40.8337 25.8225 40.8712 25.8058C40.9087 25.7891 40.9405 25.762 40.9628 25.7277C40.985 25.6934 40.9968 25.6534 40.9966 25.6125V22.8396C40.9961 22.7764 41.0192 22.7152 41.0614 22.6679C41.1036 22.6206 41.1619 22.5904 41.2251 22.5832C43.2969 22.3593 45.2124 21.3829 46.6041 19.8415C47.9957 18.3 48.7655 16.3022 48.7655 14.2314C48.7648 12.8211 48.4068 11.4337 47.7244 10.1971C47.042 8.96048 46.0573 7.91453 44.861 7.15568C43.7522 6.45233 42.4948 6.0166 41.1893 5.88135Z" fill="#20C997"/>
<path fill-rule="evenodd" clip-rule="evenodd" d="M39.1369 5.9934C40.0726 7.69197 40.5627 9.59735 40.562 11.5337C40.5605 14.3742 39.5048 17.1143 37.5969 19.2295C35.6891 21.3447 33.0631 22.6862 30.2218 22.9973C30.1351 23.0073 30.0552 23.0487 29.9974 23.1136C29.9395 23.1785 29.9079 23.2623 29.9084 23.349V27.1604C29.9087 27.2166 29.8926 27.2716 29.862 27.3187C29.8314 27.3659 29.7876 27.4032 29.7361 27.4261C29.6845 27.4491 29.6273 27.4566 29.5715 27.4478C29.5157 27.4389 29.4637 27.4142 29.4218 27.3765L21.4575 20.3251C19.9709 19.0732 18.8255 17.4693 18.1272 15.6615C17.4288 13.8538 17.1999 11.9003 17.4615 9.98145C17.7232 8.06259 18.467 6.24012 19.6243 4.6822C20.7816 3.12429 22.3152 1.88112 24.0834 1.0674C25.8517 0.25368 27.7978 -0.104374 29.742 0.0262752C31.6863 0.156925 33.5661 0.772069 35.2081 1.81495C36.85 2.85783 38.2012 4.29484 39.1369 5.9934ZM26.8435 8.50778C26.7805 8.61643 26.7473 8.73967 26.7474 8.86509V14.1363C26.7473 14.2617 26.7805 14.3849 26.8435 14.4936C26.9066 14.6022 26.9973 14.6925 27.1066 14.7552C27.2159 14.8179 27.3399 14.851 27.4661 14.851C27.5923 14.851 27.7163 14.818 27.8257 14.7553L33.0547 11.7534C33.0995 11.7277 33.1367 11.6907 33.1625 11.6462C33.1884 11.6017 33.202 11.5512 33.202 11.4998C33.202 11.4484 33.1884 11.3979 33.1625 11.3533C33.1367 11.3088 33.0995 11.2718 33.0547 11.2461L27.8257 8.24603C27.7163 8.18332 27.5923 8.15031 27.4661 8.15033C27.3399 8.15035 27.2159 8.1834 27.1066 8.24615C26.9973 8.30889 26.9066 8.39913 26.8435 8.50778Z" fill="#20C997"/>
<path d="M0 33.9177V39.9506C0 40.8822 0.147932 41.8285 0.73966 42.5826C1.44973 43.5142 2.69236 44.0021 3.96458 44.0021C5.23679 44.0021 6.47942 43.5142 7.1895 42.5826C7.78122 41.8285 7.92916 40.8822 7.92916 39.9506V33.9177H6.00604V40.1133C6.00604 40.8674 5.75456 41.3258 5.53266 41.5771C5.25159 41.9172 4.73382 42.2573 3.96458 42.2573C3.19533 42.2573 2.67757 41.9172 2.3965 41.5771C2.1746 41.3258 1.92312 40.8674 1.92312 40.1133V33.9177H0Z" fill="#20C997"/>
<path d="M9.17883 43.7803H11.4866L13.7647 40.1724L15.9245 43.7803H18.2323L14.8594 38.5755L17.892 33.9177H15.5843L13.7647 36.9785L12.0339 33.9177H9.72618L12.67 38.5755L9.17883 43.7803Z" fill="#20C997"/>
<path d="M25.9403 41.1779C25.3634 41.8581 24.5498 42.2573 23.6326 42.2573C21.9758 42.2573 20.2893 41.0744 20.2893 38.886C20.2893 37.0673 21.5763 35.4407 23.5586 35.4407C23.9137 35.4407 25.038 35.5147 25.9403 36.5497V34.3022C25.038 33.8142 24.2095 33.6959 23.5143 33.6959C22.1089 33.6959 20.8811 34.0656 19.8899 34.9972C19.0467 35.7808 18.3071 37.0673 18.3071 38.8564C18.3071 40.3055 18.7508 41.5328 19.8899 42.627C20.7183 43.4107 21.7687 44.0021 23.4995 44.0021C24.5646 44.0021 25.3486 43.736 25.9403 43.4254V41.1779Z" fill="#20C997"/>
<path d="M27.4421 43.7803H29.2469V40.7047C29.2469 40.2611 29.2616 39.714 29.6019 39.2852C29.9569 38.8416 30.4599 38.7677 30.8001 38.7677C31.17 38.7677 31.4067 38.8416 31.6434 39.0043L31.88 37.3186C31.6729 37.2447 31.4215 37.1708 31.1108 37.1708C30.6818 37.1708 30.3268 37.2743 30.0457 37.4517C29.9125 37.5256 29.5279 37.7918 29.2469 38.3389V37.3778H27.4421V43.7803Z" fill="#20C997"/>
<path d="M35.9716 37.1708C34.7586 37.1708 33.9302 37.57 33.3828 38.0727C32.7467 38.6494 32.3029 39.5366 32.3029 40.5864C32.3029 41.6215 32.7467 42.5087 33.3828 43.0854C33.9302 43.5881 34.7586 43.9873 35.9716 43.9873C37.1847 43.9873 38.0131 43.5881 38.5604 43.0854C39.1966 42.5087 39.6404 41.6215 39.6404 40.5864C39.6404 39.5366 39.1966 38.6494 38.5604 38.0727C38.0131 37.57 37.1847 37.1708 35.9716 37.1708ZM35.9716 42.3904C34.9213 42.3904 34.1669 41.5624 34.1669 40.5864C34.1669 39.581 34.9361 38.7677 35.9716 38.7677C37.0072 38.7677 37.7764 39.581 37.7764 40.5864C37.7764 41.5624 37.022 42.3904 35.9716 42.3904Z" fill="#20C997"/>
<path d="M45.7185 40.0098L47.4049 43.7803H48.2925L51.547 37.3778H49.5352L47.8487 41.0744L46.1327 37.3778H45.3043L43.5883 41.0744L41.9019 37.3778H39.89L43.1445 43.7803H44.0321L45.7185 40.0098Z" fill="#20C997"/>
<path d="M57.2014 38.2058C56.5949 37.2595 55.6333 37.1708 55.1451 37.1708C53.2516 37.1708 51.9646 38.679 51.9646 40.5717C51.9646 42.4495 53.2664 43.9873 55.2339 43.9873C55.6925 43.9873 56.5505 43.8838 57.2014 42.9523V43.7803H59.0062V33.001H57.2014V38.2058ZM55.6037 38.7677C56.6392 38.7677 57.3789 39.5514 57.3789 40.5717C57.3789 41.5919 56.6392 42.3904 55.6037 42.3904C54.5682 42.3904 53.8285 41.5919 53.8285 40.5717C53.8285 39.5514 54.5682 38.7677 55.6037 38.7677Z" fill="#20C997"/>
</svg>
