<svg width="162" height="39" viewBox="0 0 162 39" fill="none" xmlns="http://www.w3.org/2000/svg">
<path fill-rule="evenodd" clip-rule="evenodd" d="M48.246 0C50.4142 0 52.3697 0.392389 54.1104 1.17717C55.8506 1.96254 57.3346 3.0541 58.5623 4.45183C59.7888 5.85076 60.724 7.50593 61.3661 9.41734C62.0082 11.3293 62.3292 13.4132 62.3292 15.667C62.3292 17.9215 62.0082 20.0196 61.3661 21.9595C60.724 23.8995 59.7894 25.5766 58.5623 26.9886C57.3352 28.4018 55.8506 29.5077 54.1104 30.3061C52.3691 31.1052 50.4142 31.5047 48.246 31.5047C46.0772 31.5047 44.1295 31.1052 42.403 30.3061C40.6759 29.5077 39.2139 28.4018 38.0153 26.9886C36.8168 25.5766 35.903 23.9001 35.2758 21.9595C34.6473 20.019 34.334 17.9215 34.334 15.667C34.334 13.4126 34.6473 11.3293 35.2758 9.41734C35.903 7.50593 36.8168 5.85017 38.0153 4.45183C39.2139 3.0541 40.6759 1.96254 42.403 1.17717C44.1295 0.392389 46.0772 0 48.246 0ZM29.3222 38.1402H33.9452L35.2294 25.8542H29.2366V0.770458H10.4447C10.2449 2.65393 10.0018 4.63787 9.71698 6.7205C9.42463 8.84598 9.08925 10.9653 8.71104 13.0772C8.32302 15.2467 7.89488 17.4087 7.42686 19.5623C6.97017 21.6716 6.46349 23.7696 5.90724 25.8548H0L1.28418 38.1402H5.90665V30.8203H29.3222V38.1402ZM15.0027 10.7016C15.2358 9.12293 15.4285 7.53858 15.5806 5.95009H23.2857V25.8549H11.8565C12.2935 24.1913 12.7073 22.5217 13.0979 20.8466C13.4939 19.15 13.8507 17.4444 14.168 15.7313C14.4772 14.06 14.7555 12.3831 15.0027 10.7016ZM44.8642 6.0142C45.8339 5.48626 46.9617 5.22229 48.2459 5.22229C49.5301 5.22229 50.6644 5.48626 51.649 6.0142C52.6293 6.53871 53.4725 7.28657 54.1103 8.19731C54.7667 9.12478 55.259 10.2241 55.5871 11.4934C55.9147 12.7633 56.0794 14.1408 56.0794 15.6242C56.0794 17.0796 55.9147 18.4565 55.5871 19.755C55.259 21.0546 54.7667 22.189 54.1103 23.1586C53.4534 24.1289 52.6335 24.8994 51.649 25.4702C50.6644 26.0415 49.5301 26.3263 48.2459 26.3263C46.9617 26.3263 45.8339 26.0415 44.8642 25.4702C43.8939 24.8994 43.0806 24.1289 42.4243 23.1586C41.7673 22.189 41.275 21.0546 40.9474 19.755C40.6193 18.4565 40.4552 17.0796 40.4552 15.6242C40.4552 14.1408 40.6193 12.7633 40.9474 11.4934C41.275 10.2241 41.7679 9.12478 42.4243 8.19731C43.0806 7.27044 43.8939 6.54274 44.8642 6.0142Z" fill="white"/>
<path fill-rule="evenodd" clip-rule="evenodd" d="M95.0069 0.770508L78.7834 30.8204H72.0623L88.3286 0.770508H95.0069ZM82.0195 0.770567L65.796 30.8204H59.0754L75.3418 0.770567H82.0195ZM91.7704 30.8204L107.994 0.770508H101.316L85.0498 30.8204H91.7704Z" fill="white"/>
<path fill-rule="evenodd" clip-rule="evenodd" d="M142.657 12.4994H151.732C154.928 12.4994 157.346 13.2984 158.988 14.8965C160.629 16.4952 161.45 18.7925 161.45 21.7883C161.45 24.8139 160.615 27.0754 158.946 28.5731C157.276 30.0719 154.871 30.8204 151.732 30.8204H136.792V0.770508H142.657V12.4994H142.657ZM129.922 38.1403H134.545L135.83 25.8543H129.837V0.770567H111.046C110.846 2.65404 110.603 4.63798 110.318 6.72061C110.026 8.84613 109.69 10.9655 109.312 13.0773C108.924 15.2468 108.496 17.4089 108.028 19.5624C107.571 21.6717 107.064 23.7698 106.508 25.8549H100.601L101.884 38.1403H106.507V30.8204H129.922V38.1403ZM115.603 10.7016C115.837 9.12298 116.029 7.53864 116.182 5.95014H123.887V25.855H112.457C112.895 24.1915 113.308 22.5219 113.698 20.8467C114.095 19.15 114.452 17.4445 114.769 15.7313C115.078 14.06 115.356 12.3832 115.603 10.7016ZM154.022 24.9774C153.152 25.7051 152.031 26.069 150.662 26.069H142.656V17.2937H150.661C152.088 17.2937 153.222 17.6719 154.065 18.4275C154.906 19.1843 155.327 20.2902 155.327 21.745C155.327 23.173 154.892 24.2497 154.022 24.9774Z" fill="white"/>
</svg>
