<svg width="134" height="86" viewBox="0 0 134 86" fill="none" xmlns="http://www.w3.org/2000/svg">
<circle cx="95.5657" cy="47.5656" r="27.5" transform="rotate(150 95.5657 47.5656)" fill="#20C997" fill-opacity="0.13"/>
<circle cx="11.4458" cy="38.0786" r="8" transform="rotate(150 11.4458 38.0786)" fill="#20C997" fill-opacity="0.13"/>
<path d="M42.2032 14.5425C39.3147 14.5425 36.9731 16.9084 36.9731 19.8269V33.9186H40.4598V19.8269C40.4598 18.8541 41.2404 18.0654 42.2032 18.0654H84.0436V14.5425H42.2032Z" fill="#20C997"/>
<path d="M42.2032 67.387C41.2404 67.387 40.4598 66.5983 40.4598 65.6255V48.0107H36.9731V65.6255C36.9731 68.544 39.3147 70.9099 42.2032 70.9099H59.6368V67.387H42.2032Z" fill="#20C997"/>
<path d="M85.276 71.9296L42.937 29.15C42.2563 28.4624 41.1527 28.4624 40.4719 29.15L30.5104 39.2153C29.8299 39.9031 29.8299 41.0181 30.5104 41.7061L72.8495 84.4855C73.1763 84.816 73.6197 85.0016 74.0819 85.0016C74.5443 85.0014 74.9876 84.8158 75.3144 84.4855L85.2759 74.4204C85.9566 73.7325 85.9566 72.6174 85.276 71.9296ZM74.0819 80.7494L34.2081 40.4606L41.7045 32.8861L81.5784 73.1751L74.0819 80.7494Z" fill="#20C997"/>
<path d="M106.707 67.3867H80.5566V70.9096H99.7334V79.717C99.7334 80.6898 100.514 81.4785 101.477 81.4785H106.707C110.558 81.4785 113.68 78.324 113.68 74.4325C113.68 70.5412 110.558 67.3867 106.707 67.3867ZM106.707 77.9556H103.22V70.9096H106.707C108.632 70.9096 110.193 72.4869 110.193 74.4325C110.193 76.3784 108.632 77.9556 106.707 77.9556Z" fill="#20C997"/>
<path d="M106.707 14.5425H97.9907V18.0654H106.707C108.633 18.0654 110.194 19.6426 110.194 21.5883V74.4327H113.681V21.5883C113.681 17.697 110.559 14.5425 106.707 14.5425Z" fill="#20C997"/>
<path d="M61.8916 50.2874L56.6611 55.5723L59.1265 58.0633L64.357 52.7785L61.8916 50.2874Z" fill="#20C997"/>
<path d="M54.9185 43.2419L49.688 48.5269L52.1534 51.0179L57.3839 45.733L54.9185 43.2419Z" fill="#20C997"/>
<path d="M68.8608 57.3339L63.6304 62.6187L66.0958 65.1096L71.3262 59.8249L68.8608 57.3339Z" fill="#20C997"/>
<path d="M75.8374 64.3835L70.6069 69.6685L73.0723 72.1595L78.3028 66.8746L75.8374 64.3835Z" fill="#20C997"/>
<path d="M47.9399 36.196L42.7095 41.481L45.1749 43.972L50.4053 38.6871L47.9399 36.196Z" fill="#20C997"/>
<path d="M105.197 4.4105L102.788 1.97619C100.749 0.00988939 97.5407 0.00988939 95.5022 1.97619L68.9928 28.7611C68.3123 29.4489 68.3123 30.5639 68.9928 31.2519L76.2226 38.5568C76.5486 38.8884 76.9925 39.0742 77.4551 39.0729C77.9174 39.0727 78.3607 38.8871 78.6876 38.5568L105.197 11.7717C105.198 11.7709 105.199 11.7701 105.199 11.7692C107.21 9.73654 107.209 6.44186 105.197 4.4105ZM102.734 9.27927L77.4551 34.8206L72.6905 30.0064L97.9691 4.46681C98.6274 3.83119 99.6643 3.83119 100.323 4.46681L102.734 6.89946C102.734 6.89979 102.734 6.89996 102.735 6.90029C103.384 7.55737 103.384 8.62251 102.734 9.27927Z" fill="#20C997"/>
<path d="M76.8958 35.6417L69.3716 38.1801L71.8838 30.5652L68.5714 29.4502L64.9556 40.4083C64.8964 40.5879 64.8662 40.776 64.8662 40.9653C64.8664 41.9381 65.6471 42.7266 66.6099 42.7263C66.7945 42.727 66.978 42.6984 67.1539 42.6418L77.9992 38.9884L76.8958 35.6417Z" fill="#20C997"/>
<path d="M93.1466 6.84496L90.6812 9.33594L97.9111 16.6409L100.376 14.1499L93.1466 6.84496Z" fill="#20C997"/>
<path d="M92.7601 39.2031H66.6099V42.7262H92.7601V39.2031Z" fill="#20C997"/>
<path d="M99.7337 39.2031H96.2471V42.7262H99.7337V39.2031Z" fill="#20C997"/>
<path d="M106.707 39.2031H103.22V42.7262H106.707V39.2031Z" fill="#20C997"/>
</svg>
